<svg width="140" height="31" viewBox="0 0 140 31" fill="none" xmlns="http://www.w3.org/2000/svg">
<path d="M13.7611 20.2361C18.9925 20.2361 23.2333 15.9952 23.2333 10.7639C23.2333 5.53249 18.9925 1.29163 13.7611 1.29163H0.5V20.2361H13.7611Z" fill="#FD853A"/>
<path d="M0.5 1.29163L23.2333 29.7083H8.07778L0.5 20.2361V1.29163Z" fill="#2E90FA"/>
<path d="M15.5245 20.0722C14.9532 20.1798 14.3637 20.2361 13.7611 20.2361H0.5V1.29163L15.5245 20.0722Z" fill="#53B1FD"/>
<path d="M38.8238 21.4934C37.4977 21.4934 36.3585 21.2281 35.4061 20.6977C34.4657 20.1552 33.7424 19.3957 33.2361 18.4192C32.7297 17.4306 32.4766 16.2673 32.4766 14.9291C32.4766 13.5909 32.7297 12.4336 33.2361 11.4571C33.7424 10.4806 34.4657 9.72713 35.4061 9.19669C36.3585 8.65418 37.4977 8.38293 38.8238 8.38293C39.6798 8.38293 40.4875 8.51555 41.247 8.78077C42.0185 9.04599 42.6515 9.42574 43.1457 9.92002L42.3862 11.7645C41.8437 11.3064 41.2892 10.9749 40.7226 10.7699C40.156 10.5529 39.5471 10.4444 38.8961 10.4444C37.6062 10.4444 36.6237 10.8362 35.9486 11.6199C35.2735 12.3914 34.9359 13.4945 34.9359 14.9291C34.9359 16.3637 35.2735 17.4728 35.9486 18.2564C36.6237 19.04 37.6062 19.4319 38.8961 19.4319C39.5471 19.4319 40.156 19.3294 40.7226 19.1244C41.2892 18.9074 41.8437 18.5699 42.3862 18.1118L43.1457 19.9563C42.6515 20.4385 42.0185 20.8182 41.247 21.0955C40.4875 21.3607 39.6798 21.4934 38.8238 21.4934Z" fill="#B5B5C3"/>
<path d="M48.3457 21.4934C47.4295 21.4934 46.6338 21.3065 45.9587 20.9328C45.2836 20.5591 44.7592 20.0286 44.3854 19.3414C44.0117 18.6422 43.8248 17.8224 43.8248 16.8821C43.8248 15.9418 44.0117 15.128 44.3854 14.4409C44.7592 13.7537 45.2836 13.2232 45.9587 12.8495C46.6338 12.4758 47.4295 12.2889 48.3457 12.2889C49.2619 12.2889 50.0576 12.4758 50.7327 12.8495C51.4078 13.2232 51.9322 13.7537 52.3059 14.4409C52.6797 15.128 52.8665 15.9418 52.8665 16.8821C52.8665 17.8224 52.6797 18.6422 52.3059 19.3414C51.9322 20.0286 51.4078 20.5591 50.7327 20.9328C50.0576 21.3065 49.2619 21.4934 48.3457 21.4934ZM48.3457 19.7754C49.0208 19.7754 49.5633 19.5343 49.9732 19.0521C50.3831 18.5578 50.588 17.8345 50.588 16.8821C50.588 15.9177 50.3831 15.2004 49.9732 14.7302C49.5633 14.248 49.0208 14.0069 48.3457 14.0069C47.6706 14.0069 47.1281 14.248 46.7182 14.7302C46.3083 15.2004 46.1033 15.9177 46.1033 16.8821C46.1033 17.8345 46.3083 18.5578 46.7182 19.0521C47.1281 19.5343 47.6706 19.7754 48.3457 19.7754Z" fill="#B5B5C3"/>
<path d="M54.7684 21.3125V12.4698H56.9745V13.826C57.2398 13.3438 57.6075 12.9701 58.0776 12.7049C58.5478 12.4276 59.0903 12.2889 59.7051 12.2889C61.0312 12.2889 61.8992 12.8676 62.3091 14.0249C62.5864 13.4824 62.9842 13.0605 63.5026 12.7591C64.021 12.4457 64.6117 12.2889 65.2748 12.2889C67.264 12.2889 68.2585 13.5005 68.2585 15.9237V21.3125H65.9981V16.0141C65.9981 15.339 65.8836 14.8447 65.6545 14.5313C65.4375 14.2178 65.0638 14.0611 64.5334 14.0611C63.9427 14.0611 63.4785 14.2721 63.141 14.694C62.8034 15.1039 62.6346 15.6765 62.6346 16.4119V21.3125H60.3742V16.0141C60.3742 15.339 60.2597 14.8447 60.0306 14.5313C59.8136 14.2178 59.4459 14.0611 58.9275 14.0611C58.3368 14.0611 57.8727 14.2721 57.5351 14.694C57.1976 15.1039 57.0288 15.6765 57.0288 16.4119V21.3125H54.7684Z" fill="#B5B5C3"/>
<path d="M70.6266 21.3125V12.4698H72.8328V13.826C73.098 13.3438 73.4657 12.9701 73.9359 12.7049C74.406 12.4276 74.9485 12.2889 75.5634 12.2889C76.8895 12.2889 77.7575 12.8676 78.1674 14.0249C78.4446 13.4824 78.8425 13.0605 79.3609 12.7591C79.8793 12.4457 80.47 12.2889 81.133 12.2889C83.1222 12.2889 84.1168 13.5005 84.1168 15.9237V21.3125H81.8564V16.0141C81.8564 15.339 81.7418 14.8447 81.5128 14.5313C81.2958 14.2178 80.9221 14.0611 80.3916 14.0611C79.8009 14.0611 79.3368 14.2721 78.9992 14.694C78.6616 15.1039 78.4929 15.6765 78.4929 16.4119V21.3125H76.2325V16.0141C76.2325 15.339 76.1179 14.8447 75.8889 14.5313C75.6719 14.2178 75.3042 14.0611 74.7858 14.0611C74.1951 14.0611 73.7309 14.2721 73.3934 14.694C73.0558 15.1039 72.887 15.6765 72.887 16.4119V21.3125H70.6266Z" fill="#B5B5C3"/>
<path d="M89.3601 21.4934C88.7212 21.4934 88.1485 21.3728 87.6422 21.1317C87.1479 20.8785 86.7561 20.541 86.4668 20.119C86.1895 19.6971 86.0509 19.2209 86.0509 18.6904C86.0509 18.0394 86.2196 17.5271 86.5572 17.1534C86.8947 16.7676 87.4433 16.4903 88.2028 16.3215C88.9623 16.1527 89.981 16.0684 91.2589 16.0684H91.8918V15.6886C91.8918 15.0858 91.7592 14.6518 91.4939 14.3866C91.2287 14.1214 90.7827 13.9888 90.1558 13.9888C89.6615 13.9888 89.1552 14.0671 88.6368 14.2239C88.1184 14.3685 87.594 14.5976 87.0635 14.911L86.4125 13.3739C86.726 13.1569 87.0937 12.9701 87.5156 12.8134C87.9496 12.6446 88.4017 12.518 88.8719 12.4336C89.3541 12.3372 89.8062 12.2889 90.2281 12.2889C91.5181 12.2889 92.4765 12.5903 93.1034 13.1931C93.7302 13.7838 94.0437 14.7061 94.0437 15.9599V21.3125H91.9279V19.902C91.723 20.3963 91.3975 20.7881 90.9514 21.0774C90.5054 21.3547 89.9749 21.4934 89.3601 21.4934ZM89.8303 19.9382C90.421 19.9382 90.9092 19.7332 91.295 19.3234C91.6929 18.9135 91.8918 18.3951 91.8918 17.7682V17.3704H91.2769C90.1437 17.3704 89.3541 17.4608 88.908 17.6416C88.474 17.8104 88.257 18.1238 88.257 18.5819C88.257 18.9798 88.3957 19.3053 88.6729 19.5584C88.9502 19.8116 89.336 19.9382 89.8303 19.9382Z" fill="#B5B5C3"/>
<path d="M96.338 21.3125V12.4698H98.5442V13.8441C98.8456 13.3378 99.2494 12.952 99.7558 12.6868C100.274 12.4215 100.853 12.2889 101.492 12.2889C103.577 12.2889 104.62 13.5005 104.62 15.9237V21.3125H102.36V16.0322C102.36 15.345 102.227 14.8447 101.962 14.5313C101.709 14.2178 101.311 14.0611 100.768 14.0611C100.105 14.0611 99.5749 14.2721 99.1771 14.694C98.7913 15.1039 98.5984 15.6524 98.5984 16.3396V21.3125H96.338Z" fill="#B5B5C3"/>
<path d="M110.316 21.4934C109.544 21.4934 108.863 21.3065 108.272 20.9328C107.694 20.5591 107.242 20.0286 106.916 19.3414C106.591 18.6422 106.428 17.8224 106.428 16.8821C106.428 15.9297 106.591 15.116 106.916 14.4409C107.242 13.7537 107.694 13.2232 108.272 12.8495C108.863 12.4758 109.544 12.2889 110.316 12.2889C110.943 12.2889 111.509 12.4276 112.016 12.7049C112.522 12.9821 112.902 13.3498 113.155 13.8079V8.56377H115.415V21.3125H113.209V19.8478C112.968 20.3541 112.588 20.758 112.07 21.0594C111.551 21.3487 110.967 21.4934 110.316 21.4934ZM110.949 19.7754C111.624 19.7754 112.166 19.5343 112.576 19.0521C112.986 18.5578 113.191 17.8345 113.191 16.8821C113.191 15.9177 112.986 15.2004 112.576 14.7302C112.166 14.248 111.624 14.0069 110.949 14.0069C110.274 14.0069 109.731 14.248 109.321 14.7302C108.911 15.2004 108.706 15.9177 108.706 16.8821C108.706 17.8345 108.911 18.5578 109.321 19.0521C109.731 19.5343 110.274 19.7754 110.949 19.7754Z" fill="#B5B5C3"/>
<path d="M121.177 20.5892V16.9183H117.596V15.3269H121.177V11.7645H122.84V15.3269H126.421V16.9183H122.84V20.5892H121.177Z" fill="#B5B5C3"/>
<path d="M128.819 21.3125V8.56377H134.352C135.751 8.56377 136.83 8.90132 137.589 9.57643C138.349 10.2395 138.729 11.1738 138.729 12.3794C138.729 13.3317 138.481 14.1214 137.987 14.7483C137.493 15.3631 136.782 15.779 135.853 15.996C136.468 16.1889 136.975 16.653 137.372 17.3884L139.506 21.3125H136.956L134.75 17.2438C134.533 16.8459 134.274 16.5747 133.973 16.43C133.683 16.2854 133.31 16.213 132.852 16.213H131.134V21.3125H128.819ZM131.134 14.4951H133.955C135.642 14.4951 136.486 13.8079 136.486 12.4336C136.486 11.0713 135.642 10.3902 133.955 10.3902H131.134V14.4951Z" fill="#B5B5C3"/>
</svg>
