<svg width="72" height="56" viewBox="0 0 72 56" fill="none" xmlns="http://www.w3.org/2000/svg">
<g id="Group 26794" opacity="0.46">
<path id="Vector 4" d="M0 53V53.5H-0.5V53H0ZM29.6667 53C29.6667 54.4728 28.4728 55.6667 27 55.6667C25.5272 55.6667 24.3333 54.4728 24.3333 53C24.3333 51.5272 25.5272 50.3333 27 50.3333C28.4728 50.3333 29.6667 51.5272 29.6667 53ZM0.5 -1V53H-0.5V-1H0.5ZM0 52.5H27V53.5H0V52.5Z" fill="#9EA5D1"/>
<path id="Vector 5" d="M0 37V37.5H-0.5V37H0ZM49.6667 37C49.6667 38.4728 48.4728 39.6667 47 39.6667C45.5272 39.6667 44.3333 38.4728 44.3333 37C44.3333 35.5272 45.5272 34.3333 47 34.3333C48.4728 34.3333 49.6667 35.5272 49.6667 37ZM0.5 -17V37H-0.5V-17H0.5ZM0 36.5H47V37.5H0V36.5Z" fill="#9EA5D1"/>
<path id="Vector 6" d="M0 22V22.5H-0.5V22H0ZM71.6667 22C71.6667 23.4728 70.4728 24.6667 69 24.6667C67.5272 24.6667 66.3333 23.4728 66.3333 22C66.3333 20.5272 67.5272 19.3333 69 19.3333C70.4728 19.3333 71.6667 20.5272 71.6667 22ZM0.5 -32V22H-0.5V-32H0.5ZM0 21.5H69V22.5H0V21.5Z" fill="#9EA5D1"/>
</g>
</svg>
