<svg width="71" height="56" viewBox="0 0 71 56" fill="none" xmlns="http://www.w3.org/2000/svg">
<g id="Group 26793" opacity="0.46">
<path id="Vector 4" d="M72 53V53.5H72.5V53H72ZM42.3333 53C42.3333 54.4728 43.5272 55.6667 45 55.6667C46.4728 55.6667 47.6667 54.4728 47.6667 53C47.6667 51.5272 46.4728 50.3333 45 50.3333C43.5272 50.3333 42.3333 51.5272 42.3333 53ZM71.5 -1V53H72.5V-1H71.5ZM72 52.5H45V53.5H72V52.5Z" fill="#9EA5D1"/>
<path id="Vector 5" d="M72 37V37.5H72.5V37H72ZM22.3333 37C22.3333 38.4728 23.5272 39.6667 25 39.6667C26.4728 39.6667 27.6667 38.4728 27.6667 37C27.6667 35.5272 26.4728 34.3333 25 34.3333C23.5272 34.3333 22.3333 35.5272 22.3333 37ZM71.5 -17V37H72.5V-17H71.5ZM72 36.5H25V37.5H72V36.5Z" fill="#9EA5D1"/>
<path id="Vector 6" d="M72 22V22.5H72.5V22H72ZM0.333333 22C0.333333 23.4728 1.52724 24.6667 3 24.6667C4.47276 24.6667 5.66667 23.4728 5.66667 22C5.66667 20.5272 4.47276 19.3333 3 19.3333C1.52724 19.3333 0.333333 20.5272 0.333333 22ZM71.5 -32V22H72.5V-32H71.5ZM72 21.5H3V22.5H72V21.5Z" fill="#9EA5D1"/>
</g>
</svg>
