<svg width="18" height="18" viewBox="0 0 18 18" fill="none" xmlns="http://www.w3.org/2000/svg">
<g id="settings-02">
<g id="Icon">
<path d="M9.00037 11.25C10.243 11.25 11.2504 10.2426 11.2504 9C11.2504 7.75736 10.243 6.75 9.00037 6.75C7.75773 6.75 6.75037 7.75736 6.75037 9C6.75037 10.2426 7.75773 11.25 9.00037 11.25Z" stroke="#B5B5C3" stroke-width="1.5" stroke-linecap="round" stroke-linejoin="round"/>
<path d="M6.96718 14.5283L7.40551 15.5142C7.53582 15.8076 7.74847 16.057 8.01768 16.232C8.28689 16.4069 8.6011 16.5001 8.92218 16.5C9.24326 16.5001 9.55747 16.4069 9.82668 16.232C10.0959 16.057 10.3085 15.8076 10.4388 15.5142L10.8772 14.5283C11.0332 14.1785 11.2957 13.8869 11.6272 13.695C11.9608 13.5026 12.3467 13.4206 12.7297 13.4608L13.8022 13.575C14.1214 13.6088 14.4436 13.5492 14.7297 13.4035C15.0158 13.2578 15.2534 13.0322 15.4138 12.7542C15.5745 12.4763 15.651 12.1577 15.6341 11.8372C15.6173 11.5166 15.5078 11.2079 15.3188 10.9483L14.6838 10.0758C14.4577 9.76285 14.3369 9.38611 14.3388 9C14.3388 8.61494 14.4607 8.23976 14.6872 7.92833L15.3222 7.05583C15.5111 6.79632 15.6206 6.48755 15.6375 6.16701C15.6543 5.84646 15.5778 5.52791 15.4172 5.25C15.2568 4.97193 15.0191 4.74637 14.733 4.60067C14.447 4.45497 14.1248 4.3954 13.8055 4.42917L12.733 4.54333C12.35 4.58356 11.9641 4.50159 11.6305 4.30917C11.2984 4.11619 11.0358 3.82302 10.8805 3.47167L10.4388 2.48583C10.3085 2.19238 10.0959 1.94304 9.82668 1.76805C9.55747 1.59306 9.24326 1.49995 8.92218 1.5C8.6011 1.49995 8.28689 1.59306 8.01768 1.76805C7.74847 1.94304 7.53582 2.19238 7.40551 2.48583L6.96718 3.47167C6.81188 3.82302 6.54933 4.11619 6.21718 4.30917C5.88359 4.50159 5.49768 4.58356 5.11468 4.54333L4.03885 4.42917C3.71959 4.3954 3.3974 4.45497 3.11133 4.60067C2.82526 4.74637 2.58761 4.97193 2.42718 5.25C2.26655 5.52791 2.19002 5.84646 2.20688 6.16701C2.22374 6.48755 2.33327 6.79632 2.52218 7.05583L3.15718 7.92833C3.38364 8.23976 3.50558 8.61494 3.50551 9C3.50558 9.38506 3.38364 9.76024 3.15718 10.0717L2.52218 10.9442C2.33327 11.2037 2.22374 11.5124 2.20688 11.833C2.19002 12.1535 2.26655 12.4721 2.42718 12.75C2.58777 13.0279 2.82545 13.2534 3.11148 13.399C3.39751 13.5447 3.71962 13.6044 4.03885 13.5708L5.11135 13.4567C5.49435 13.4164 5.88026 13.4984 6.21385 13.6908C6.54724 13.8833 6.811 14.1765 6.96718 14.5283Z" stroke="#B5B5C3" stroke-width="1.5" stroke-linecap="round" stroke-linejoin="round"/>
</g>
</g>
</svg>
